<svg data-v-0dd9719b="" version="1.0" xmlns="http://www.w3.org/2000/svg" xmlns:xlink="http://www.w3.org/1999/xlink" width="100%" height="100%" viewBox="0 0 340.000000 250.000000" preserveAspectRatio="xMidYMid meet" color-interpolation-filters="sRGB" style="margin: auto;"> <rect data-v-0dd9719b="" x="0" y="0" width="100%" height="100%" fill="#ffffff" fill-opacity="1" class="background"></rect> <rect data-v-0dd9719b="" x="0" y="0" width="100%" height="100%" fill="url(#watermark)" fill-opacity="1" class="watermarklayer"></rect> <g data-v-0dd9719b="" fill="#ef3e43" class="icon-text-wrapper icon-svg-group iconsvg" transform="translate(49.39666748046875,90.63495254516602)"><g class="iconsvg-imagesvg" transform="translate(0,0)"><g><rect fill="#ef3e43" fill-opacity="0" stroke-width="2" x="0" y="0" width="60" height="68.73009690943664" class="image-rect"></rect> <svg filter="url(#colors1508168818)" x="0" y="0" width="60" height="68.73009690943664" filtersec="colorsf8668709228" class="image-svg-svg primary" style="overflow: visible;"><svg xmlns="http://www.w3.org/2000/svg" xmlns:xlink="http://www.w3.org/1999/xlink" version="1.1" x="0px" y="0px" viewBox="0.00007767172064632177 -0.00115203857421875 439.9801330566406 504.0001525878906" xml:space="preserve"><path d="M436.384,235.419c2.293-6.05,6.869-21.672-0.147-36.018c-5.96-12.187-16.573-15.35-26.835-18.409  c-7.941-2.367-15.442-4.603-21.534-10.792c-10.605-10.777-11.711-26.098-10.626-42.162c11.727-10.055,19.973-23.111,23.875-37.884  c4.047-15.323,3.052-31.009-2.878-45.363c-13.541-32.778-47.595-46.064-75.334-44.697c-26.795,1.324-45.331,16.054-55.642,27.212  c-9.264-3.249-15.907-7.162-22.903-11.29c-12.517-7.384-26.704-15.753-49.653-15.927l-0.699-0.002c-19.671,0-39.158,6.09-57.92,18.1  c-10.998,7.04-24.129,11.131-37.974,11.832c-14.729,0.746-28.386,4.404-40.591,10.874C33.065,53.859,15.426,77.797,6.514,110.122  C2.333,125.287,0.081,142.12,0.002,158.8c-0.2,41.867,15.246,67.863,27.658,88.753c11.136,18.741,18.494,31.123,15.46,53.127  c-0.955,6.929-2.947,14.775-4.874,22.365c-5.646,22.236-13.377,52.689,9.325,72.359c6.16,5.337,12.3,7.722,14.654,8.499  c4.429,1.462,8.957,2.125,13.533,2.125c20.503,0,41.911-13.307,59.006-27.619c-6.774,15.681-11.916,37.162-5.134,60.082  c13.315,45.008,64.648,65.508,106.708,65.508c17.654,0,33.426-4.471,45.61-12.929c34.231-23.764,30.928-67.44,28.014-105.978  c-1.659-21.941-3.931-51.991,5.032-58.044c2.237-1.511,5.882-2.277,10.835-2.277c10.25,0,23.082,3.228,35.486,6.347l0.724,0.182  c21.87,5.497,44.946-4.962,55.001-24.878c3.768-5.421,4.304-12.945,1.573-22.384c-3.264-11.282-0.327-23.671,7.665-32.332  C430.706,246.905,434.107,241.426,436.384,235.419z M323.299,8.085c24.941-1.236,55.493,10.585,67.546,39.761  c9.381,22.707,4.161,49.315-12.479,67.922c0.093-0.869,0.186-1.737,0.28-2.604c2.241-20.77,4.547-42.234-9.589-55.349  c-6.123-9.489-17.088-22.104-34.937-29.284c-22.339-8.985-43.646-4.543-57.9,0.98C285.931,20.009,301.628,9.156,323.299,8.085z   M61.269,47.962c11.164-5.918,23.695-9.266,37.248-9.952c12.954-0.655,25.36-4.035,36.267-9.819  c12.746,16.322,23.614,34.011,32.284,52.659c8.235,17.716,14.551,36.383,18.772,55.482c0.413,1.866,2.066,3.138,3.902,3.138  c0.286,0,0.576-0.031,0.867-0.095c2.157-0.477,3.519-2.612,3.042-4.769c-3.796-17.177-9.239-34.013-16.206-50.155  c3.715,0.829,7.377,1.886,10.947,3.17c6.396,2.299,12.534,5.323,18.244,8.987c0.668,0.429,1.417,0.634,2.156,0.634  c1.317,0,2.606-0.65,3.371-1.84c1.193-1.859,0.653-4.333-1.207-5.527c-6.215-3.988-12.897-7.279-19.858-9.782  c-5.729-2.059-11.673-3.588-17.7-4.562c-8.62-18.168-19.243-35.447-31.64-51.446c17.03-10.605,34.599-15.995,52.233-15.995  l0.669,0.002c7.87,0.059,14.649,1.216,20.672,3c3.505,8.7,6.41,17.701,8.628,26.793c2.207,9.044,3.777,18.326,4.667,27.587  c0.199,2.069,1.94,3.618,3.977,3.618c0.128,0,0.258-0.006,0.388-0.019c2.199-0.211,3.81-2.166,3.599-4.364  c-0.927-9.641-2.562-19.303-4.858-28.718c-1.74-7.131-3.889-14.208-6.399-21.139c5.477,2.479,10.347,5.339,14.962,8.062  c6.636,3.915,12.974,7.648,21.473,10.905c-2.169,2.828-3.509,4.929-3.996,5.726c-0.983,1.607-0.71,3.683,0.653,4.982  c1.365,1.3,3.451,1.472,5.008,0.412c3.425-2.329,34.425-22.364,67.698-8.981c9.177,3.691,16.321,9.015,21.782,14.492  c-6.884-0.704-14.401,0.717-22.906,2.328c-15.874,3.008-35.629,6.753-62.98-0.922c-2.131-0.601-4.335,0.644-4.932,2.77  c-0.597,2.127,0.643,4.335,2.771,4.932c29.157,8.183,50.816,4.077,66.632,1.08c14.275-2.707,23.708-4.495,31.798,2.743  c7.917,7.082,9.461,18.11,8.96,30.733c-7.891,4.489-15.98,8.786-24.121,12.822c-5.082-6.588-11.13-12.296-18.019-16.996  c-6.164-4.206-12.912-7.529-20.055-9.88c-2.101-0.689-4.359,0.451-5.05,2.55c-0.69,2.098,0.451,4.359,2.55,5.05  c6.431,2.116,12.502,5.106,18.046,8.889c5.729,3.908,10.798,8.603,15.144,13.972c-16.945,8.04-34.501,15.159-52.271,21.163  c-2.093,0.707-3.216,2.977-2.509,5.07c0.564,1.668,2.121,2.721,3.789,2.721c0.424,0,0.856-0.068,1.281-0.211  c19.635-6.634,39.023-14.592,57.624-23.654c0.001-0.001,0.003-0.001,0.004-0.002c0.004-0.002,0.008-0.004,0.011-0.006  c7.701-3.752,15.374-7.754,22.9-11.926c-0.266,2.84-0.577,5.725-0.891,8.636c-2.063,19.117-4.363,40.46,6.07,56.738  c-8.493,5.483-17.454,10.311-26.695,14.376c-14.846,6.531-30.544,11.17-46.658,13.79c-2.181,0.354-3.661,2.41-3.307,4.59  c0.319,1.963,2.017,3.359,3.943,3.359c0.213,0,0.429-0.017,0.646-0.052c16.781-2.728,33.131-7.56,48.596-14.363  c3.672-1.615,7.298-3.356,10.875-5.196c-6.402,10.046-11.887,23.298-11.722,39.113c0.088,8.425,1.788,16.808,5.052,24.913  c0.628,1.56,2.127,2.507,3.712,2.507c0.497,0,1.003-0.093,1.493-0.291c2.049-0.825,3.042-3.156,2.216-5.205  c-2.891-7.178-4.396-14.583-4.473-22.008c-0.242-23.225,13.414-40.424,21.75-48.741c7.531,7.638,16.771,10.393,24.925,12.823  c9.398,2.801,17.515,5.22,21.934,14.257c5.643,11.538,1.777,24.592-0.147,29.669c-1.912,5.043-4.774,9.651-8.506,13.695  c-2.266,2.456-4.187,5.163-5.778,8.033c-5.101-0.623-10.255-0.921-15.372-0.849c-18.734,0.269-37.5,5.309-54.267,14.575  c-1.934,1.068-2.635,3.502-1.566,5.436c0.729,1.32,2.096,2.066,3.504,2.066c0.654,0,1.318-0.161,1.931-0.5  c15.621-8.632,33.087-13.327,50.513-13.578c3.97-0.058,7.969,0.126,11.944,0.522c-2.476,7.787-2.7,16.255-0.379,24.277  c2.06,7.122,1.87,12.426-0.566,15.765c-5.525,7.574-22.854,3.217-41.199-1.397c-21.09-5.304-44.608-11.207-63.54-3.986  c-6.735-3.515-12.668-8.103-17.634-13.686c-3.54-3.979-6.546-8.421-8.936-13.205c-0.987-1.977-3.391-2.78-5.366-1.791  c-1.976,0.987-2.778,3.39-1.791,5.366c2.704,5.414,6.107,10.442,10.115,14.947c4.406,4.953,9.48,9.213,15.13,12.737  c-0.03,0.02-0.061,0.038-0.092,0.058c-24.112,16.286-21.417,51.916-18.812,86.373c2.504,33.11,4.869,64.385-14.569,77.879  c-13.25,9.199-36.125,9.661-59.698,1.205c-8.094-2.903-15.485-6.612-21.829-10.823c0.563-1.438,1.142-2.87,1.751-4.278  c7.423-17.167,18.32-32.502,32.391-45.578c1.618-1.504,1.711-4.035,0.207-5.653c-1.503-1.617-4.034-1.71-5.653-0.207  c-14.886,13.835-26.422,30.073-34.287,48.264c-0.363,0.839-0.708,1.692-1.056,2.543c-7.796-6.434-13.216-13.653-15.237-20.811  c-3.734-13.228,3.713-27.208,10.915-40.728c8.04-15.093,16.354-30.701,7.69-44.744c-1.599-2.592-3.711-4.958-6.17-7.037  c3.508-5.11,6.761-10.415,9.751-15.913c6.36-0.252,12.538-1.625,18.392-4.112c5.75-2.443,10.958-5.864,15.481-10.168  c1.601-1.523,1.663-4.055,0.14-5.655c-1.523-1.601-4.055-1.664-5.655-0.14c-3.826,3.64-8.231,6.534-13.095,8.6  c-3.469,1.474-7.189,2.497-10.964,3.048c4.311-8.992,7.98-18.439,10.958-28.336c0.637-2.116-0.562-4.347-2.677-4.983  c-2.117-0.637-4.346,0.562-4.983,2.677c-5.575,18.526-13.619,35.429-23.994,50.526c-5.922-3.128-12.783-4.833-19.381-4.476  c-15.715,0.849-25.753,13.134-35.46,25.015c-9.201,11.262-17.896,21.905-30.514,21.904c-0.137,0-0.276-0.001-0.414-0.004  c-1.883-0.034-7.614-0.139-11.742-3.715c-8.076-6.998-3.879-23.532,0.565-41.036c1.547-6.095,3.128-12.341,4.338-18.608  c7.088-2.044,13.344-5.121,18.719-9.228c6.208-4.743,10.068-9.915,13.473-14.477c4.072-5.456,7.589-10.167,14.321-13.208  c8.296-3.747,18.543-3.692,30.462,0.161c2.103,0.679,4.357-0.473,5.037-2.576c0.68-2.102-0.474-4.357-2.576-5.037  c-13.869-4.483-26.054-4.43-36.216,0.161c-8.615,3.892-13.101,9.902-17.439,15.714c-3.244,4.346-6.598,8.839-11.919,12.905  c-3.646,2.786-7.806,5.018-12.448,6.708c3.886-31.774-7.603-51.138-19.765-71.608c-11.076-18.641-22.509-37.899-23.232-68.889  c12.072-0.869,21.253-4.076,30.15-7.195c9.949-3.487,19.375-6.782,32.455-6.677c12.192,0.097,24.43,3.116,36.372,8.975  c1.983,0.973,4.379,0.154,5.353-1.829s0.154-4.38-1.829-5.353c-13.028-6.392-26.429-9.687-39.832-9.793  c-14.504-0.095-25.007,3.567-35.165,7.127c-8.595,3.013-16.773,5.873-27.459,6.723c0.659-19.848,5.953-67.688,40.652-86.082  c8.035-4.259,17.182-6.675,27.187-7.182c2.207-0.112,3.904-1.991,3.792-4.197c-0.111-2.207-2.002-3.9-4.197-3.793  c-11.182,0.566-21.454,3.292-30.53,8.104c-38.661,20.495-44.274,72.485-44.917,93.378c-5.202-0.109-10.481-0.715-15.766-1.828  c0.501-14.079,2.586-28.093,6.104-40.855C22.539,82.1,38.806,59.87,61.269,47.962z M34.536,243.464  c-11.663-19.63-26.11-43.971-26.517-82.226c5.304,1.027,10.604,1.593,15.842,1.695c0.794,33.104,13.279,54.135,24.351,72.768  c12.151,20.45,22.645,38.11,18.506,68.137c-0.08,0.578-0.175,1.16-0.265,1.741c-4.992,1.022-10.431,1.526-16.289,1.523  c0.341-1.806,0.642-3.587,0.882-5.328C54.46,276.995,45.668,262.199,34.536,243.464z M64.733,396.308  c-1.896-0.626-6.855-2.557-11.923-6.948C33.837,372.92,40.299,347.469,46,325.012c0.835-3.29,1.678-6.625,2.455-9.937  c0.591,0.009,1.196,0.037,1.78,0.037c5.171,0,10.054-0.379,14.654-1.12c-1.056,4.937-2.309,9.89-3.541,14.746  c-5.069,19.964-9.856,38.821,1.95,49.05c6.32,5.476,14.233,5.621,16.833,5.668c16.711,0.292,27.169-12.476,37.27-24.838  c9.004-11.021,17.51-21.43,29.697-22.088c4.763-0.26,9.793,0.896,14.219,3.031c-3.821,5.029-7.907,9.848-12.278,14.429  C133.734,370.031,94.879,406.264,64.733,396.308z M363.988,323.541l-0.716-0.18c-12.882-3.24-26.202-6.59-37.443-6.59  c-6.67,0-11.68,1.193-15.313,3.648c-12.812,8.653-10.636,37.439-8.531,65.281c2.752,36.395,5.872,77.646-24.6,98.799  c-10.837,7.523-25.032,11.5-41.047,11.5c-28.138,0-85.048-12.494-99.037-59.777c-10.944-36.991,12.609-70.287,17.701-76.896  c4.634-4.87,8.965-9.989,13.005-15.338c1.608,1.433,2.994,3.016,4.048,4.724c6.252,10.135-0.326,22.483-7.942,36.782  c-7.575,14.221-16.162,30.339-11.554,46.663c4.733,16.765,23.397,32.819,48.711,41.899c12.011,4.309,23.953,6.446,34.842,6.446  c12.65,0,23.877-2.887,32.12-8.61c23.198-16.104,20.547-51.156,17.983-85.054c-2.433-32.18-4.95-65.455,15.313-79.14  c17.078-11.536,42.902-5.041,65.685,0.688c12.897,3.244,24.758,6.222,34.116,5.711C391.532,323.056,377.488,326.937,363.988,323.541  z"></path></svg></svg> <defs><filter id="colors1508168818"><feColorMatrix type="matrix" values="0 0 0 0 0.60546875  0 0 0 0 0.0390625  0 0 0 0 0.546875  0 0 0 1 0" class="icon-fecolormatrix"></feColorMatrix></filter> <filter id="colorsf8668709228"><feColorMatrix type="matrix" values="0 0 0 0 0.99609375  0 0 0 0 0.99609375  0 0 0 0 0.99609375  0 0 0 1 0" class="icon-fecolormatrix"></feColorMatrix></filter> <filter id="colorsb891811762"><feColorMatrix type="matrix" values="0 0 0 0 0  0 0 0 0 0  0 0 0 0 0  0 0 0 1 0" class="icon-fecolormatrix"></feColorMatrix></filter></defs></g></g> <g transform="translate(67,5.868799209594727)"><g data-gra="path-name" fill-rule="" class="tp-name iconsvg-namesvg" transform="translate(0,0)"><g transform="scale(1)"><g><path d="M34.02-31.81L34.34-31.95Q34.47-32.09 34.88-32.51 35.28-32.94 35.71-33.37 36.13-33.8 36.54-34.16 36.95-34.52 37.08-34.52L37.08-34.52Q37.21-34.52 37.93-34 38.66-33.48 39.49-32.83 40.32-32.17 40.99-31.59 41.67-31 41.76-30.82L41.76-30.82 41.85-30.6Q41.85-30.38 41.65-30.24 41.45-30.11 41.2-29.97 40.95-29.83 40.73-29.63 40.5-29.43 40.5-29.11L40.5-29.11 40.5 0.32Q40.5 0.67 39.91 0.97 39.33 1.26 38.59 1.46 37.84 1.67 37.13 1.75 36.41 1.84 36.13 1.84L36.13 1.84Q35.68 1.84 35.5 1.82 35.32 1.8 35.1 1.35L35.1 1.35Q35.05 1.21 34.99 0.7 34.92 0.18 34.88-0.45 34.83-1.08 34.81-1.64 34.78-2.21 34.78-2.38L34.78-2.38Q34.78-4.86 34.94-7.29 35.1-9.72 35.1-12.2L35.1-12.2Q35.1-12.69 34.96-12.8 34.83-12.91 34.34-12.91L34.34-12.91Q33.44-12.91 32.6-12.71 31.77-12.51 30.91-12.29 30.06-12.06 29.2-11.86 28.35-11.65 27.45-11.65L27.45-11.65Q26.91-11.65 26.17-11.7 25.43-11.74 24.79-11.97 24.16-12.2 23.71-12.62 23.27-13.05 23.27-13.81L23.27-13.81 23.27-30.46Q23.27-30.91 22.81-30.91L22.81-30.91Q22.54-30.91 22.09-30.96 21.64-31 21.17-31 20.7-31 20.29-30.89 19.89-30.78 19.8-30.46L19.8-30.46Q19.53-29.61 19.55-28.35 19.57-27.09 19.53-26.19L19.53-26.19Q19.35-23.89 18.95-21.8 18.54-19.71 17.77-17.8 17.01-15.88 15.82-14.13 14.63-12.38 12.91-10.8L12.91-10.8Q12.6-10.53 12.17-10.24 11.74-9.95 11.29-9.95L11.29-9.95Q11.21-9.95 11.14-10.08 11.07-10.21 11.07-10.3L11.07-10.3Q11.03-10.89 11.34-11.77 11.65-12.64 12.08-13.59 12.51-14.54 12.91-15.48 13.32-16.43 13.5-17.1L13.5-17.1Q14.26-20.34 14.33-23.69 14.4-27.04 14.4-30.38L14.4-30.38Q14.4-30.91 13.95-30.91L13.95-30.91 10.04-30.91Q9.58-30.91 9.58-30.46L9.58-30.46 9.58-3.15Q9.58-2.92 9.74-2.7 9.9-2.48 9.9-2.25L9.9-2.25Q9.9 0.32 8.48 1.37 7.06 2.43 4.68 2.43L4.68 2.43Q4.54 2.43 4.37 2.41 4.18 2.38 4.18 2.16L4.18 2.16Q4.18-3.96 4.09-10.01 4-16.06 3.96-22.18L3.96-22.18 3.92-29.65Q3.92-30.69 3.87-31.72 3.82-32.76 3.92-33.8L3.92-33.8Q3.92-33.88 3.96-34.02 4-34.16 4.09-34.16L4.09-34.16Q4.41-34.16 5.24-33.8 6.08-33.44 7.02-32.98 7.96-32.53 8.8-32.17 9.63-31.81 9.99-31.81L9.99-31.81 34.02-31.81ZM28.21-30.46L28.21-17.68Q28.21-17.1 28.8-16.81 29.38-16.52 29.88-16.52L29.88-16.52Q30.6-16.52 30.96-16.92 31.32-17.32 31.57-17.84 31.81-18.36 31.97-18.77 32.13-19.17 32.45-19.17L32.45-19.17Q32.67-19.17 32.71-18.74 32.76-18.31 32.87-17.82 32.98-17.32 33.23-16.9 33.48-16.47 34.11-16.47L34.11-16.47Q34.47-16.47 34.63-16.58 34.78-16.7 34.78-17.1L34.78-17.1 34.78-30.46Q34.78-30.91 34.34-30.91L34.34-30.91 28.66-30.91Q28.21-30.91 28.21-30.46L28.21-30.46ZM33.44-2.11L10.98-2.11Q10.93-2.11 10.82-2.16 10.71-2.21 10.66-2.21L10.66-2.21Q10.62-2.25 10.62-2.27 10.62-2.29 10.57-2.34L10.57-2.34Q10.62-2.38 10.71-2.38L10.71-2.38 33.7-2.38 33.8-2.29 33.75-2.25 33.44-2.11ZM77.98 3.6L77.98-35.28Q77.98-35.73 78.44-35.73L78.44-35.73Q81.36-35.73 84.28-34.96L84.28-34.96Q84.42-34.92 84.6-34.85 84.78-34.78 84.78-34.6L84.78-34.6Q84.78-34.29 84.31-34.04 83.84-33.8 83.84-33.39L83.84-33.39 83.84 2.11Q83.84 2.56 83.14 2.9 82.44 3.24 81.54 3.46 80.64 3.69 79.76 3.8 78.88 3.92 78.53 3.92L78.53 3.92Q78.34 3.92 78.16 3.87 77.98 3.82 77.98 3.6L77.98 3.6ZM58.91-34.83L59.13-34.65Q58.99-34.42 58.59-34 58.19-33.57 58.19-33.34L58.19-33.34Q58.19-30.15 58.23-26.93 58.27-23.71 58.14-20.59 58-17.46 57.55-14.4 57.11-11.34 56.09-8.48 55.08-5.63 53.41-2.95 51.75-0.27 49.19 2.11L49.19 2.11Q48.73 2.52 48.31 2.83 47.88 3.15 47.25 3.33L47.25 3.33 47.12 3.19Q47.07 3.1 47.16 2.92L47.16 2.92Q47.66 1.89 48.17 0.9 48.69-0.09 49.09-1.13L49.09-1.13Q50.72-5.22 51.41-9.4 52.11-13.59 52.31-17.86 52.52-22.14 52.42-26.44 52.34-30.73 52.34-35.01L52.34-35.01Q52.34-35.46 52.78-35.46L52.78-35.46Q54.36-35.46 55.87-35.26 57.38-35.05 58.91-34.83L58.91-34.83ZM71.5-32.4L71.73-32.27Q71.73-32.09 71.5-31.93 71.28-31.77 71.03-31.61 70.78-31.45 70.56-31.3 70.33-31.14 70.33-30.91L70.33-30.91 70.33-2.38Q70.33-2.02 69.64-1.78 68.94-1.53 68.06-1.37 67.19-1.21 66.35-1.15 65.52-1.08 65.25-1.08L65.25-1.08Q64.8-1.08 64.8-1.53L64.8-1.53 64.8-32.71Q64.8-33.16 65.16-33.16L65.16-33.16Q65.92-33.16 66.69-32.98 67.45-32.8 68.22-32.76L68.22-32.76Q69.08-32.71 69.88-32.63 70.69-32.53 71.5-32.4L71.5-32.4ZM103.95-21.06L103.81-21.15Q103.86-21.38 104.11-21.98 104.36-22.59 104.67-23.27 104.98-23.94 105.3-24.57 105.61-25.2 105.75-25.52L105.75-25.52Q107.01-28.53 108.05-31.63 109.08-34.74 109.75-37.98L109.75-37.98 109.98-38.12Q110.43-37.98 110.86-37.8 111.28-37.62 111.73-37.44L111.73-37.44Q113-36.95 114.34-36.65 115.69-36.36 116.91-35.73L116.91-35.73Q117.22-35.64 117.22-35.37L117.22-35.37Q117.22-35.1 116.62-34.56 116.01-34.02 115.29-33.3 114.57-32.58 113.96-31.77 113.36-30.96 113.36-30.24L113.36-30.24Q113.36-30.02 113.27-29.83L113.27-29.83Q112.59-28.62 111.53-27.31 110.47-26.01 109.22-24.82 107.95-23.63 106.58-22.63 105.21-21.64 103.95-21.06L103.95-21.06ZM100.08-29.97L100.08-29.97Q99.22-29.97 98.37-30.73 97.52-31.5 96.82-32.56 96.12-33.62 95.65-34.74 95.17-35.87 95.04-36.59L95.04-36.59Q94.95-36.9 95.04-37.06 95.13-37.21 95.49-37.21L95.49-37.21Q96.48-37.21 97.72-36.97 98.95-36.72 100.06-36.16 101.16-35.59 101.9-34.74 102.64-33.88 102.64-32.67L102.64-32.67Q102.64-31.54 101.95-30.76 101.25-29.97 100.08-29.97ZM118.35-10.13L118.22-10.35 118.35-10.48 122.09-10.48Q122.94-10.48 123.53-11.63 124.11-12.78 124.47-14.54 124.83-16.29 125.03-18.43 125.23-20.56 125.32-22.54 125.41-24.52 125.41-26.12 125.41-27.72 125.41-28.39L125.41-28.39Q125.41-28.84 125.44-29.27 125.46-29.7 124.78-29.7L124.78-29.7Q122.89-29.7 121.03-29.68 119.16-29.65 117.27-29.7L117.27-29.7Q116.64-29.7 115.85-29.68 115.06-29.65 114.48-29.79L114.48-29.79Q114.66-30.15 115.02-30.15L115.02-30.15 124.42-30.15Q124.56-30.15 124.99-30.51 125.41-30.87 125.89-31.34 126.36-31.81 126.79-32.27 127.22-32.71 127.35-32.85L127.35-32.85Q127.44-32.89 127.51-32.94 127.57-32.98 127.66-32.98L127.66-32.98Q127.89-33.03 128.63-32.51 129.38-31.99 130.16-31.3 130.95-30.6 131.56-29.95 132.16-29.29 132.16-29.07L132.16-29.07Q132.16-28.93 131.99-28.8 131.81-28.66 131.6-28.51 131.4-28.35 131.18-28.21 130.95-28.08 130.91-27.99L130.91-27.99Q130.81-27.86 130.79-27.54 130.77-27.22 130.77-26.84 130.77-26.46 130.77-26.1 130.77-25.74 130.77-25.56L130.77-25.56Q130.77-23.89 130.79-21.71 130.81-19.53 130.63-17.19 130.45-14.85 129.98-12.58 129.51-10.3 128.52-8.5 127.53-6.71 125.93-5.6 124.34-4.5 121.91-4.5L121.91-4.5Q121.68-4.5 121.55-4.75 121.41-5 121.34-5.33 121.28-5.67 121.25-5.98 121.23-6.3 121.19-6.48L121.19-6.48Q121.05-7.2 120.8-7.72 120.56-8.23 120.22-8.64 119.88-9.04 119.41-9.4 118.94-9.76 118.35-10.13L118.35-10.13ZM92.7-9.18L92.83-9.31Q93.56-9.4 94.14-9.67 94.72-9.95 95.22-10.48L95.22-10.48Q95.36-10.62 95.58-11.03 95.81-11.43 96.03-11.9 96.25-12.38 96.46-12.82 96.66-13.28 96.75-13.5L96.75-13.5Q98.01-16.2 99.16-18.88 100.31-21.55 101.47-24.25L101.47-24.25Q101.92-25.24 102.31-26.21 102.69-27.18 103.14-28.13L103.14-28.13Q103.36-28.57 103.59-29 103.81-29.43 104.04-29.88L104.04-29.88Q104.13-29.7 104.15-29.38 104.17-29.07 104.15-28.71 104.13-28.35 104.08-28.01 104.04-27.68 104-27.45L104-27.45Q103.68-25.02 102.89-22.66 102.11-20.29 101.3-17.98 100.48-15.66 99.88-13.3 99.27-10.93 99.27-8.46L99.27-8.46Q99.27-7.38 99.56-6.34 99.86-5.31 100.19-4.27 100.53-3.24 100.82-2.21 101.11-1.17 101.11-0.09L101.11-0.09Q101.11 1.62 100.17 2.77 99.22 3.92 97.42 3.92L97.42 3.92Q95.89 3.92 95.31 3.22 94.72 2.52 94.72 1.08L94.72 1.08Q94.72-0.14 94.93-1.33 95.13-2.52 95.13-3.73L95.13-3.73Q95.13-4.77 95.04-5.44 94.95-6.12 94.68-6.66 94.41-7.2 93.96-7.69 93.51-8.19 92.79-8.91L92.79-8.91 92.7-9.18ZM91.71-26.59L91.71-26.59Q91.8-27 92.11-27 92.43-27 92.75-27L92.75-27Q93.56-27 94.57-26.68 95.58-26.37 96.44-25.79 97.29-25.2 97.88-24.41 98.46-23.63 98.46-22.68L98.46-22.68Q98.46-21.51 97.65-20.79 96.84-20.07 95.72-20.07L95.72-20.07Q94.68-20.07 94.03-20.81 93.38-21.55 92.95-22.59 92.52-23.63 92.25-24.73 91.98-25.83 91.71-26.59ZM115.97-15.48L116.1-15.79 116.1-22.5Q116.1-22.81 115.63-22.95 115.16-23.09 114.46-23.09 113.76-23.09 112.91-22.99 112.05-22.9 111.28-22.86 110.52-22.81 109.94-22.84 109.35-22.86 109.17-23.04L109.17-23.04Q109.26-23.36 110.05-23.49 110.84-23.63 111.83-23.63 112.81-23.63 113.74-23.58 114.66-23.54 115.02-23.54L115.02-23.54Q115.25-23.54 115.63-23.96 116.01-24.39 116.44-24.88 116.86-25.38 117.27-25.81 117.67-26.23 117.9-26.23L117.9-26.23Q118.03-26.23 118.66-25.76 119.3-25.29 120.02-24.7 120.73-24.12 121.39-23.58 122.04-23.04 122.27-22.86L122.27-22.86Q122.4-22.72 122.4-22.63L122.4-22.63Q122.4-22.41 122.22-22.3 122.04-22.18 121.79-22.07 121.55-21.96 121.36-21.78 121.19-21.6 121.19-21.29L121.19-21.29 121.19-13.81Q121.19-13.41 120.6-13.12 120.02-12.82 119.23-12.64 118.44-12.46 117.7-12.38 116.95-12.29 116.64-12.29L116.64-12.29Q116.14-12.29 116.08-12.67 116.01-13.05 116.06-13.5 116.1-13.95 116.1-14.33 116.1-14.71 115.78-14.71L115.78-14.71 111.02-14.71Q110.7-14.71 110.7-14.4L110.7-14.4Q110.7-14.08 110.72-13.12 110.75-12.15 110.77-10.87 110.79-9.58 110.81-8.17 110.84-6.75 110.88-5.56 110.92-4.37 110.95-3.55 110.97-2.75 111.02-2.7L111.02-2.7Q111.11-2.56 111.42-2.34 111.73-2.11 111.91-2.11L111.91-2.11 126.59-2.11Q127.62-2.11 128.18-2.83 128.75-3.55 129.13-4.43 129.51-5.31 129.82-6.03 130.14-6.75 130.63-6.75L130.63-6.75Q130.81-6.75 130.91-6.23 131-5.71 131-5.08 131-4.46 130.97-3.82 130.95-3.19 130.95-3.01L130.95-3.01Q130.95-2.79 131.35-2.56 131.76-2.34 132.23-2.02 132.7-1.71 133.11-1.3 133.51-0.9 133.51-0.32L133.51-0.32Q133.51 0.77 132.77 1.42 132.03 2.07 131 2.43 129.96 2.79 128.84 2.9 127.71 3.01 126.9 3.01L126.9 3.01 108.9 3.01Q107.23 3.01 106.27 1.84 105.3 0.67 105.3-0.9L105.3-0.9 105.3-17.01Q105.3-17.19 105.37-17.35 105.44-17.5 105.66-17.5L105.66-17.5Q105.8-17.5 106.13-17.39 106.47-17.28 106.85-17.12 107.23-16.96 107.59-16.81 107.95-16.65 108.13-16.61L108.13-16.61Q109.48-16.11 111.11-15.64 112.72-15.16 114.16-15.16L114.16-15.16Q114.57-15.16 115.09-15.19 115.61-15.21 115.97-15.48L115.97-15.48ZM136.94 3.33L136.8 3.19Q136.8 2.97 137 2.56 137.21 2.16 137.45 1.69 137.7 1.21 137.93 0.79 138.15 0.36 138.28 0.09L138.28 0.09Q139.37-2.29 140.04-4.79 140.72-7.29 141.21-9.86L141.21-9.86Q141.44-10.98 141.75-12.11 142.06-13.23 142.06-14.4L142.06-14.4 142.06-33.84Q142.06-34.24 142.51-34.24L142.51-34.24Q143.19-34.24 143.91-33.95 144.63-33.66 145.42-33.3 146.21-32.94 147.06-32.65 147.91-32.35 148.81-32.35L148.81-32.35Q151.11-32.35 153.59-32.98 156.06-33.62 158.22-34.38L158.22-34.38Q158.76-34.56 160.25-35.12 161.73-35.68 163.37-36.29 165.01-36.9 166.37-37.37 167.72-37.84 167.99-37.84L167.99-37.84Q168.3-37.84 168.48-37.71L168.48-37.71Q168.88-37.39 169.18-36.97 169.47-36.54 169.83-36.18L169.83-36.18Q170.59-35.28 171.43-34.49 172.26-33.7 173.03-32.85L173.03-32.85 173.12-32.58 172.98-32.45Q170.73-32.89 168.48-32.63 166.23-32.35 164.03-32.17L164.03-32.17Q163.8-32.17 163.33-32.13 162.85-32.09 162.31-32.06 161.78-32.04 161.32-31.97 160.88-31.9 160.74-31.86L160.74-31.86Q160.56-31.77 160.38-31.54 160.2-31.32 160.2-31.09L160.2-31.09 160.2 1.48Q160.2 1.89 159.59 2.16 158.99 2.43 158.18 2.56 157.37 2.7 156.6 2.75 155.84 2.79 155.52 2.79L155.52 2.79Q155.25 2.79 154.8 2.79 154.35 2.79 154.35 2.34L154.35 2.34 154.35-31.05Q154.35-31.5 153.9-31.5L153.9-31.5 148.68-31.5Q148.46-31.5 148.19-31.23 147.91-30.96 147.91-30.73L147.91-30.73Q147.91-28.62 148-26.57 148.09-24.52 148.09-22.41L148.09-22.41Q148.09-18.77 147.74-15.12 147.38-11.47 146.25-7.96L146.25-7.96Q145.4-5.26 143.82-3.15 142.25-1.03 140.26 0.94L140.26 0.94Q139.95 1.21 139.54 1.62 139.14 2.02 138.71 2.38 138.28 2.75 137.81 3.01 137.34 3.28 136.94 3.33L136.94 3.33ZM172.57 3.38L172.57 3.38Q172.39 3.38 172.31 3.1L172.31 3.1Q169.83-3.87 168.64-11.12 167.44-18.36 167.44-25.74L167.44-25.74Q167.44-26.05 167.44-26.26 167.44-26.46 167.49-26.77L167.49-26.77Q167.53-27.18 167.67-27.02 167.81-26.86 167.92-26.53 168.03-26.19 168.14-25.83 168.25-25.47 168.25-25.38L168.25-25.38Q168.84-22.95 169.34-20.99 169.83-19.04 170.37-17.3 170.91-15.57 171.56-13.99 172.22-12.42 173.09-10.82 173.97-9.22 175.14-7.54 176.31-5.85 177.93-3.87L177.93-3.87Q178.06-3.73 178.06-3.55L178.06-3.55Q178.06-3.33 177.59-2.95 177.12-2.56 176.51-2.11 175.91-1.67 175.34-1.24 174.78-0.81 174.6-0.54L174.6-0.54Q174.47-0.32 174.19 0.32 173.93 0.94 173.63 1.62 173.34 2.29 173.05 2.83 172.75 3.38 172.57 3.38Z" transform="translate(-3.8533332347869873, 38.119998931884766)"></path></g> <!----> <!----> <!----> <!----> <!----> <!----> <!----></g></g> <g data-gra="path-slogan" fill-rule="" class="tp-slogan iconsvg-slogansvg" fill="#ef3e43" transform="translate(16.412506103515625,48.040000915527344)"><!----> <!----> <g transform="scale(1, 1)"><g transform="scale(1)"><path d="M7.17-6.09L7.17-6.09L6.09-6.09Q6-7.73 3.94-7.83L3.94-7.83Q2.02-7.78 2.02-6.33L2.02-6.33Q2.02-5.39 3.05-5.25L3.05-5.25L5.48-4.69Q7.41-4.22 7.41-2.34L7.41-2.34Q7.36 0.05 4.03 0.14L4.03 0.14Q2.20 0.14 1.45-0.61L1.45-0.61Q0.52-1.31 0.56-2.77L0.56-2.77L1.69-2.77Q1.73-0.80 4.03-0.75L4.03-0.75Q6.28-0.80 6.33-2.20L6.33-2.20Q6.52-3.38 4.45-3.75L4.45-3.75L2.67-4.13Q0.84-4.64 0.84-6.19L0.84-6.19Q0.98-8.72 3.84-8.81L3.84-8.81Q7.08-8.81 7.17-6.09ZM9.05-8.58L10.22-8.58L10.22 0L9.05 0L9.05-8.58ZM19.36-6.05L19.36-6.05L18.23-6.05Q17.81-7.78 15.84-7.83L15.84-7.83Q13.13-7.69 13.03-4.36L13.03-4.36Q13.03-0.80 15.89-0.80L15.89-0.80Q17.86-0.84 18.33-3.19L18.33-3.19L19.45-3.19Q18.94 0.05 15.66 0.14L15.66 0.14Q11.91 0 11.81-4.31L11.81-4.31Q12-8.63 15.84-8.81L15.84-8.81Q18.89-8.72 19.36-6.05ZM21.98-5.06L26.48-5.06L26.48-8.58L27.66-8.58L27.66 0L26.48 0L26.48-3.98L21.98-3.98L21.98 0L20.81 0L20.81-8.58L21.98-8.58L21.98-5.06ZM35.11-3.19L35.11-8.58L36.28-8.58L36.28-3.05Q36.14 0.05 32.77 0.14L32.77 0.14Q29.63 0.05 29.48-2.86L29.48-2.86L29.48-8.58L30.66-8.58L30.66-3.19Q30.70-0.84 32.81-0.80L32.81-0.80Q35.11-0.84 35.11-3.19L35.11-3.19ZM43.73 0L42.89-2.48L39.42-2.48L38.53 0L37.36 0L40.59-8.58L41.91-8.58L45 0L43.73 0ZM41.16-7.31L39.80-3.52L42.47-3.52L41.20-7.31L41.16-7.31ZM47.44-8.58L51.75-1.64L51.75-8.58L52.88-8.58L52.88 0L51.56 0L47.20-6.94L47.16-6.94L47.16 0L46.03 0L46.03-8.58L47.44-8.58ZM61.22-7.64L59.16-7.64L59.16-4.97L61.22-4.97Q63.05-4.92 63-6.38L63-6.38Q63-7.64 61.22-7.64L61.22-7.64ZM61.69 0L57.98 0L57.98-8.58L61.78-8.58Q64.08-8.48 64.17-6.42L64.17-6.42Q64.17-5.16 63.05-4.64L63.05-4.64Q64.64-4.08 64.64-2.53L64.64-2.53Q64.50-0.09 61.69 0L61.69 0ZM61.41-3.98L59.16-3.98L59.16-0.98L61.64-0.98Q63.42-1.03 63.47-2.53L63.47-2.53Q63.47-3.98 61.41-3.98L61.41-3.98ZM71.63-3.19L71.63-8.58L72.80-8.58L72.80-3.05Q72.66 0.05 69.28 0.14L69.28 0.14Q66.14 0.05 66-2.86L66-2.86L66-8.58L67.17-8.58L67.17-3.19Q67.22-0.84 69.33-0.80L69.33-0.80Q71.63-0.84 71.63-3.19L71.63-3.19ZM77.81-7.64L75.75-7.64L75.75-4.97L77.81-4.97Q79.64-4.92 79.59-6.38L79.59-6.38Q79.59-7.64 77.81-7.64L77.81-7.64ZM78.28 0L74.58 0L74.58-8.58L78.38-8.58Q80.67-8.48 80.77-6.42L80.77-6.42Q80.77-5.16 79.64-4.64L79.64-4.64Q81.23-4.08 81.23-2.53L81.23-2.53Q81.09-0.09 78.28 0L78.28 0ZM78-3.98L75.75-3.98L75.75-0.98L78.23-0.98Q80.02-1.03 80.06-2.53L80.06-2.53Q80.06-3.98 78-3.98L78-3.98ZM85.78-7.64L83.72-7.64L83.72-4.97L85.78-4.97Q87.61-4.92 87.56-6.38L87.56-6.38Q87.56-7.64 85.78-7.64L85.78-7.64ZM86.25 0L82.55 0L82.55-8.58L86.34-8.58Q88.64-8.48 88.73-6.42L88.73-6.42Q88.73-5.16 87.61-4.64L87.61-4.64Q89.20-4.08 89.20-2.53L89.20-2.53Q89.06-0.09 86.25 0L86.25 0ZM85.97-3.98L83.72-3.98L83.72-0.98L86.20-0.98Q87.98-1.03 88.03-2.53L88.03-2.53Q88.03-3.98 85.97-3.98L85.97-3.98ZM90.52-8.58L91.69-8.58L91.69-1.03L96.05-1.03L96.05 0L90.52 0L90.52-8.58ZM98.48-1.03L103.64-1.03L103.64 0L97.31 0L97.31-8.58L103.55-8.58L103.55-7.59L98.48-7.59L98.48-4.92L103.17-4.92L103.17-3.89L98.48-3.89L98.48-1.03ZM115.64-6.05L115.64-6.05L114.52-6.05Q114.09-7.78 112.13-7.83L112.13-7.83Q109.41-7.69 109.31-4.36L109.31-4.36Q109.31-0.80 112.17-0.80L112.17-0.80Q114.14-0.84 114.61-3.19L114.61-3.19L115.73-3.19Q115.22 0.05 111.94 0.14L111.94 0.14Q108.19 0 108.09-4.31L108.09-4.31Q108.28-8.63 112.13-8.81L112.13-8.81Q115.17-8.72 115.64-6.05ZM117.09-8.58L118.27-8.58L118.27-1.03L122.63-1.03L122.63 0L117.09 0L117.09-8.58ZM129.42 0L128.58-2.48L125.11-2.48L124.22 0L123.05 0L126.28-8.58L127.59-8.58L130.69 0L129.42 0ZM126.84-7.31L125.48-3.52L128.16-3.52L126.89-7.31L126.84-7.31ZM136.50-7.13L136.45-7.13L134.48 0L133.27 0L131.02-8.58L132.23-8.58L133.88-1.59L133.92-1.59L135.84-8.58L137.11-8.58L139.03-1.59L139.08-1.59L140.67-8.58L141.94-8.58L139.69 0L138.47 0L136.50-7.13Z" transform="translate(-0.5602678571428572, 8.8125)"></path></g></g></g></g></g><defs v-gra="od"></defs></svg>